<mxfile host="app.diagrams.net" modified="2021-06-18T06:05:39.295Z" agent="5.0 (Macintosh; Intel Mac OS X 10_15_7) AppleWebKit/537.36 (KHTML, like Gecko) Chrome/91.0.4472.106 Safari/537.36" etag="QUc2i25AF3FBUyQIbXj4" version="14.8.0" type="github">
  <diagram id="C5RBs43oDa-KdzZeNtuy" name="Page-1">
    <mxGraphModel dx="1095" dy="1771" grid="1" gridSize="10" guides="1" tooltips="1" connect="1" arrows="1" fold="1" page="1" pageScale="1" pageWidth="827" pageHeight="1169" math="0" shadow="0">
      <root>
        <mxCell id="WIyWlLk6GJQsqaUBKTNV-0" />
        <mxCell id="WIyWlLk6GJQsqaUBKTNV-1" parent="WIyWlLk6GJQsqaUBKTNV-0" />
        <mxCell id="XGTmsf3LzEXTziaxVreT-13" style="edgeStyle=orthogonalEdgeStyle;rounded=0;orthogonalLoop=1;jettySize=auto;html=1;entryX=0.5;entryY=0;entryDx=0;entryDy=0;" edge="1" parent="WIyWlLk6GJQsqaUBKTNV-1" source="WIyWlLk6GJQsqaUBKTNV-3" target="XGTmsf3LzEXTziaxVreT-3">
          <mxGeometry relative="1" as="geometry" />
        </mxCell>
        <mxCell id="WIyWlLk6GJQsqaUBKTNV-3" value="&amp;nbsp;LOGIN SUCCESS" style="rounded=1;whiteSpace=wrap;html=1;fontSize=12;glass=0;strokeWidth=1;shadow=0;" parent="WIyWlLk6GJQsqaUBKTNV-1" vertex="1">
          <mxGeometry x="160" y="80" width="120" height="40" as="geometry" />
        </mxCell>
        <mxCell id="XGTmsf3LzEXTziaxVreT-14" style="edgeStyle=orthogonalEdgeStyle;rounded=0;orthogonalLoop=1;jettySize=auto;html=1;entryX=0.5;entryY=0;entryDx=0;entryDy=0;" edge="1" parent="WIyWlLk6GJQsqaUBKTNV-1" source="XGTmsf3LzEXTziaxVreT-3" target="XGTmsf3LzEXTziaxVreT-4">
          <mxGeometry relative="1" as="geometry">
            <Array as="points">
              <mxPoint x="640" y="190" />
              <mxPoint x="220" y="190" />
            </Array>
          </mxGeometry>
        </mxCell>
        <mxCell id="XGTmsf3LzEXTziaxVreT-15" style="edgeStyle=orthogonalEdgeStyle;rounded=0;orthogonalLoop=1;jettySize=auto;html=1;" edge="1" parent="WIyWlLk6GJQsqaUBKTNV-1" source="XGTmsf3LzEXTziaxVreT-4" target="XGTmsf3LzEXTziaxVreT-5">
          <mxGeometry relative="1" as="geometry" />
        </mxCell>
        <mxCell id="XGTmsf3LzEXTziaxVreT-4" value="websocket connect" style="rounded=1;whiteSpace=wrap;html=1;fontSize=12;glass=0;strokeWidth=1;shadow=0;" vertex="1" parent="WIyWlLk6GJQsqaUBKTNV-1">
          <mxGeometry x="160" y="280" width="120" height="40" as="geometry" />
        </mxCell>
        <mxCell id="XGTmsf3LzEXTziaxVreT-16" style="edgeStyle=orthogonalEdgeStyle;rounded=0;orthogonalLoop=1;jettySize=auto;html=1;" edge="1" parent="WIyWlLk6GJQsqaUBKTNV-1" source="XGTmsf3LzEXTziaxVreT-5" target="XGTmsf3LzEXTziaxVreT-6">
          <mxGeometry relative="1" as="geometry" />
        </mxCell>
        <mxCell id="XGTmsf3LzEXTziaxVreT-17" style="edgeStyle=orthogonalEdgeStyle;rounded=0;orthogonalLoop=1;jettySize=auto;html=1;entryX=0.5;entryY=0;entryDx=0;entryDy=0;entryPerimeter=0;" edge="1" parent="WIyWlLk6GJQsqaUBKTNV-1" source="XGTmsf3LzEXTziaxVreT-6" target="XGTmsf3LzEXTziaxVreT-11">
          <mxGeometry relative="1" as="geometry">
            <Array as="points">
              <mxPoint x="640" y="500" />
            </Array>
          </mxGeometry>
        </mxCell>
        <mxCell id="XGTmsf3LzEXTziaxVreT-6" value="websocket connect" style="rounded=1;whiteSpace=wrap;html=1;fontSize=12;glass=0;strokeWidth=1;shadow=0;" vertex="1" parent="WIyWlLk6GJQsqaUBKTNV-1">
          <mxGeometry x="380" y="480" width="120" height="40" as="geometry" />
        </mxCell>
        <mxCell id="XGTmsf3LzEXTziaxVreT-8" value="首次登录" style="text;html=1;align=center;verticalAlign=middle;resizable=0;points=[];autosize=1;strokeColor=none;" vertex="1" parent="WIyWlLk6GJQsqaUBKTNV-1">
          <mxGeometry x="20" y="70" width="60" height="20" as="geometry" />
        </mxCell>
        <mxCell id="XGTmsf3LzEXTziaxVreT-9" value="刷新页面" style="text;html=1;align=center;verticalAlign=middle;resizable=0;points=[];autosize=1;strokeColor=none;" vertex="1" parent="WIyWlLk6GJQsqaUBKTNV-1">
          <mxGeometry x="10" y="260" width="60" height="20" as="geometry" />
        </mxCell>
        <mxCell id="XGTmsf3LzEXTziaxVreT-23" style="edgeStyle=orthogonalEdgeStyle;rounded=0;orthogonalLoop=1;jettySize=auto;html=1;entryX=0.5;entryY=0;entryDx=0;entryDy=0;entryPerimeter=0;" edge="1" parent="WIyWlLk6GJQsqaUBKTNV-1" source="XGTmsf3LzEXTziaxVreT-11" target="XGTmsf3LzEXTziaxVreT-30">
          <mxGeometry relative="1" as="geometry">
            <mxPoint x="400" y="680" as="targetPoint" />
            <Array as="points">
              <mxPoint x="440" y="640" />
            </Array>
          </mxGeometry>
        </mxCell>
        <mxCell id="XGTmsf3LzEXTziaxVreT-11" value="APPLIST cache exists?" style="strokeWidth=2;html=1;shape=mxgraph.flowchart.decision;whiteSpace=wrap;" vertex="1" parent="WIyWlLk6GJQsqaUBKTNV-1">
          <mxGeometry x="590" y="585" width="100" height="100" as="geometry" />
        </mxCell>
        <mxCell id="XGTmsf3LzEXTziaxVreT-22" value="Y" style="text;html=1;align=center;verticalAlign=middle;resizable=0;points=[];autosize=1;strokeColor=none;" vertex="1" parent="WIyWlLk6GJQsqaUBKTNV-1">
          <mxGeometry x="670" y="620" width="20" height="20" as="geometry" />
        </mxCell>
        <mxCell id="XGTmsf3LzEXTziaxVreT-24" value="N" style="text;html=1;align=center;verticalAlign=middle;resizable=0;points=[];autosize=1;strokeColor=none;" vertex="1" parent="WIyWlLk6GJQsqaUBKTNV-1">
          <mxGeometry x="470" y="620" width="20" height="20" as="geometry" />
        </mxCell>
        <mxCell id="XGTmsf3LzEXTziaxVreT-26" value="首次请求" style="text;html=1;align=center;verticalAlign=middle;resizable=0;points=[];autosize=1;strokeColor=none;" vertex="1" parent="WIyWlLk6GJQsqaUBKTNV-1">
          <mxGeometry x="450" y="640" width="60" height="20" as="geometry" />
        </mxCell>
        <mxCell id="XGTmsf3LzEXTziaxVreT-48" style="edgeStyle=orthogonalEdgeStyle;rounded=0;orthogonalLoop=1;jettySize=auto;html=1;entryX=1;entryY=0.5;entryDx=0;entryDy=0;" edge="1" parent="WIyWlLk6GJQsqaUBKTNV-1" target="XGTmsf3LzEXTziaxVreT-45">
          <mxGeometry relative="1" as="geometry">
            <mxPoint x="691" y="637" as="sourcePoint" />
            <Array as="points">
              <mxPoint x="691" y="637" />
              <mxPoint x="810" y="637" />
              <mxPoint x="810" y="1103" />
            </Array>
          </mxGeometry>
        </mxCell>
        <mxCell id="XGTmsf3LzEXTziaxVreT-31" style="edgeStyle=orthogonalEdgeStyle;rounded=0;orthogonalLoop=1;jettySize=auto;html=1;exitX=0.5;exitY=1;exitDx=0;exitDy=0;exitPerimeter=0;entryX=0.5;entryY=0;entryDx=0;entryDy=0;" edge="1" parent="WIyWlLk6GJQsqaUBKTNV-1" source="XGTmsf3LzEXTziaxVreT-30" target="XGTmsf3LzEXTziaxVreT-34">
          <mxGeometry relative="1" as="geometry">
            <mxPoint x="414" y="840" as="targetPoint" />
            <Array as="points" />
          </mxGeometry>
        </mxCell>
        <mxCell id="XGTmsf3LzEXTziaxVreT-35" style="edgeStyle=orthogonalEdgeStyle;rounded=0;orthogonalLoop=1;jettySize=auto;html=1;entryX=1;entryY=0.5;entryDx=0;entryDy=0;" edge="1" parent="WIyWlLk6GJQsqaUBKTNV-1" source="XGTmsf3LzEXTziaxVreT-30" target="XGTmsf3LzEXTziaxVreT-36">
          <mxGeometry relative="1" as="geometry">
            <mxPoint x="530" y="920" as="targetPoint" />
            <Array as="points">
              <mxPoint x="550" y="730" />
              <mxPoint x="550" y="950" />
            </Array>
          </mxGeometry>
        </mxCell>
        <mxCell id="XGTmsf3LzEXTziaxVreT-39" style="edgeStyle=orthogonalEdgeStyle;rounded=0;orthogonalLoop=1;jettySize=auto;html=1;entryX=0.5;entryY=0;entryDx=0;entryDy=0;" edge="1" parent="WIyWlLk6GJQsqaUBKTNV-1" source="XGTmsf3LzEXTziaxVreT-34" target="XGTmsf3LzEXTziaxVreT-36">
          <mxGeometry relative="1" as="geometry" />
        </mxCell>
        <mxCell id="XGTmsf3LzEXTziaxVreT-34" value="初始化VHD" style="rounded=1;whiteSpace=wrap;html=1;fontSize=12;glass=0;strokeWidth=1;shadow=0;" vertex="1" parent="WIyWlLk6GJQsqaUBKTNV-1">
          <mxGeometry x="380" y="840" width="120" height="40" as="geometry" />
        </mxCell>
        <mxCell id="XGTmsf3LzEXTziaxVreT-40" style="edgeStyle=orthogonalEdgeStyle;rounded=0;orthogonalLoop=1;jettySize=auto;html=1;entryX=0;entryY=0.5;entryDx=0;entryDy=0;" edge="1" parent="WIyWlLk6GJQsqaUBKTNV-1" source="XGTmsf3LzEXTziaxVreT-36" target="XGTmsf3LzEXTziaxVreT-41">
          <mxGeometry relative="1" as="geometry">
            <mxPoint x="750" y="1040" as="targetPoint" />
            <Array as="points">
              <mxPoint x="440" y="1015" />
            </Array>
          </mxGeometry>
        </mxCell>
        <mxCell id="XGTmsf3LzEXTziaxVreT-36" value="检查应用版本更新，并推送给服务端" style="rounded=1;whiteSpace=wrap;html=1;fontSize=12;glass=0;strokeWidth=1;shadow=0;" vertex="1" parent="WIyWlLk6GJQsqaUBKTNV-1">
          <mxGeometry x="380" y="920" width="120" height="60" as="geometry" />
        </mxCell>
        <mxCell id="XGTmsf3LzEXTziaxVreT-38" value="Y" style="text;html=1;align=center;verticalAlign=middle;resizable=0;points=[];autosize=1;strokeColor=none;" vertex="1" parent="WIyWlLk6GJQsqaUBKTNV-1">
          <mxGeometry x="490" y="700" width="20" height="20" as="geometry" />
        </mxCell>
        <mxCell id="XGTmsf3LzEXTziaxVreT-42" style="edgeStyle=orthogonalEdgeStyle;rounded=0;orthogonalLoop=1;jettySize=auto;html=1;exitX=0;exitY=0.5;exitDx=0;exitDy=0;" edge="1" parent="WIyWlLk6GJQsqaUBKTNV-1" source="XGTmsf3LzEXTziaxVreT-45">
          <mxGeometry relative="1" as="geometry">
            <mxPoint x="280" y="1103" as="targetPoint" />
            <Array as="points">
              <mxPoint x="280" y="1103" />
            </Array>
          </mxGeometry>
        </mxCell>
        <mxCell id="XGTmsf3LzEXTziaxVreT-46" style="edgeStyle=orthogonalEdgeStyle;rounded=0;orthogonalLoop=1;jettySize=auto;html=1;" edge="1" parent="WIyWlLk6GJQsqaUBKTNV-1" target="XGTmsf3LzEXTziaxVreT-45">
          <mxGeometry relative="1" as="geometry">
            <mxPoint x="640" y="1040" as="sourcePoint" />
          </mxGeometry>
        </mxCell>
        <mxCell id="XGTmsf3LzEXTziaxVreT-43" value="更新app列表信息" style="rounded=1;whiteSpace=wrap;html=1;fontSize=12;glass=0;strokeWidth=1;shadow=0;" vertex="1" parent="WIyWlLk6GJQsqaUBKTNV-1">
          <mxGeometry x="160" y="1065" width="120" height="60" as="geometry" />
        </mxCell>
        <mxCell id="XGTmsf3LzEXTziaxVreT-45" value=",&lt;br&gt;appList cache推送给Electron" style="rounded=1;whiteSpace=wrap;html=1;fontSize=12;glass=0;strokeWidth=1;shadow=0;" vertex="1" parent="WIyWlLk6GJQsqaUBKTNV-1">
          <mxGeometry x="580" y="1080" width="120" height="45" as="geometry" />
        </mxCell>
        <mxCell id="XGTmsf3LzEXTziaxVreT-50" value="「" style="text;html=1;align=center;verticalAlign=middle;resizable=0;points=[];autosize=1;strokeColor=none;" vertex="1" parent="WIyWlLk6GJQsqaUBKTNV-1">
          <mxGeometry x="865" y="70" width="30" height="20" as="geometry" />
        </mxCell>
        <mxCell id="XGTmsf3LzEXTziaxVreT-51" value="" style="endArrow=none;dashed=1;html=1;" edge="1" parent="WIyWlLk6GJQsqaUBKTNV-1">
          <mxGeometry width="50" height="50" relative="1" as="geometry">
            <mxPoint x="221.5" y="1169.3529411764705" as="sourcePoint" />
            <mxPoint x="218.5" y="-21" as="targetPoint" />
          </mxGeometry>
        </mxCell>
        <mxCell id="XGTmsf3LzEXTziaxVreT-53" value="Electron" style="rounded=0;whiteSpace=wrap;html=1;" vertex="1" parent="WIyWlLk6GJQsqaUBKTNV-1">
          <mxGeometry x="160" width="120" height="40" as="geometry" />
        </mxCell>
        <mxCell id="XGTmsf3LzEXTziaxVreT-54" value="Dsclient" style="rounded=0;whiteSpace=wrap;html=1;" vertex="1" parent="WIyWlLk6GJQsqaUBKTNV-1">
          <mxGeometry x="380" width="120" height="40" as="geometry" />
        </mxCell>
        <mxCell id="XGTmsf3LzEXTziaxVreT-55" value="SERVER" style="rounded=0;whiteSpace=wrap;html=1;" vertex="1" parent="WIyWlLk6GJQsqaUBKTNV-1">
          <mxGeometry x="580" width="120" height="40" as="geometry" />
        </mxCell>
        <mxCell id="XGTmsf3LzEXTziaxVreT-56" value="" style="endArrow=none;dashed=1;html=1;entryX=0.5;entryY=1;entryDx=0;entryDy=0;startArrow=none;" edge="1" parent="WIyWlLk6GJQsqaUBKTNV-1" source="XGTmsf3LzEXTziaxVreT-5" target="XGTmsf3LzEXTziaxVreT-54">
          <mxGeometry width="50" height="50" relative="1" as="geometry">
            <mxPoint x="440" y="1170" as="sourcePoint" />
            <mxPoint x="414" y="40" as="targetPoint" />
          </mxGeometry>
        </mxCell>
        <mxCell id="XGTmsf3LzEXTziaxVreT-58" value="" style="endArrow=none;dashed=1;html=1;entryX=0.5;entryY=1;entryDx=0;entryDy=0;startArrow=none;" edge="1" parent="WIyWlLk6GJQsqaUBKTNV-1" source="XGTmsf3LzEXTziaxVreT-3" target="XGTmsf3LzEXTziaxVreT-55">
          <mxGeometry width="50" height="50" relative="1" as="geometry">
            <mxPoint x="640" y="1170" as="sourcePoint" />
            <mxPoint x="423.9999999999998" y="50" as="targetPoint" />
          </mxGeometry>
        </mxCell>
        <mxCell id="XGTmsf3LzEXTziaxVreT-41" value="&lt;span&gt;更新appList cache&lt;/span&gt;" style="rounded=1;whiteSpace=wrap;html=1;fontSize=12;glass=0;strokeWidth=1;shadow=0;" vertex="1" parent="WIyWlLk6GJQsqaUBKTNV-1">
          <mxGeometry x="570" y="1000" width="120" height="30" as="geometry" />
        </mxCell>
        <mxCell id="XGTmsf3LzEXTziaxVreT-3" value="REMOVE APPLIST CACHE IF PRESENT" style="rounded=1;whiteSpace=wrap;html=1;fontSize=12;glass=0;strokeWidth=1;shadow=0;" vertex="1" parent="WIyWlLk6GJQsqaUBKTNV-1">
          <mxGeometry x="580" y="120" width="120" height="40" as="geometry" />
        </mxCell>
        <mxCell id="XGTmsf3LzEXTziaxVreT-60" value="" style="endArrow=none;dashed=1;html=1;entryX=0.5;entryY=1;entryDx=0;entryDy=0;startArrow=none;" edge="1" parent="WIyWlLk6GJQsqaUBKTNV-1" target="XGTmsf3LzEXTziaxVreT-3">
          <mxGeometry width="50" height="50" relative="1" as="geometry">
            <mxPoint x="640" y="1160" as="sourcePoint" />
            <mxPoint x="640" y="40" as="targetPoint" />
          </mxGeometry>
        </mxCell>
        <mxCell id="XGTmsf3LzEXTziaxVreT-30" value="&lt;span style=&quot;font-family: &amp;#34;helvetica&amp;#34;&quot;&gt;VHD是否初始化成功&lt;/span&gt;" style="strokeWidth=2;html=1;shape=mxgraph.flowchart.decision;whiteSpace=wrap;" vertex="1" parent="WIyWlLk6GJQsqaUBKTNV-1">
          <mxGeometry x="390" y="680" width="100" height="100" as="geometry" />
        </mxCell>
        <mxCell id="XGTmsf3LzEXTziaxVreT-61" value="" style="endArrow=none;dashed=1;html=1;entryX=0.5;entryY=1;entryDx=0;entryDy=0;" edge="1" parent="WIyWlLk6GJQsqaUBKTNV-1" target="XGTmsf3LzEXTziaxVreT-30">
          <mxGeometry width="50" height="50" relative="1" as="geometry">
            <mxPoint x="440" y="1170" as="sourcePoint" />
            <mxPoint x="440" y="40" as="targetPoint" />
          </mxGeometry>
        </mxCell>
        <mxCell id="XGTmsf3LzEXTziaxVreT-63" value="N" style="text;html=1;align=center;verticalAlign=middle;resizable=0;points=[];autosize=1;strokeColor=none;" vertex="1" parent="WIyWlLk6GJQsqaUBKTNV-1">
          <mxGeometry x="400" y="790" width="20" height="20" as="geometry" />
        </mxCell>
        <mxCell id="XGTmsf3LzEXTziaxVreT-5" value="init" style="rounded=1;whiteSpace=wrap;html=1;fontSize=12;glass=0;strokeWidth=1;shadow=0;" vertex="1" parent="WIyWlLk6GJQsqaUBKTNV-1">
          <mxGeometry x="380" y="360" width="120" height="40" as="geometry" />
        </mxCell>
        <mxCell id="XGTmsf3LzEXTziaxVreT-64" value="" style="endArrow=none;dashed=1;html=1;entryX=0.5;entryY=1;entryDx=0;entryDy=0;startArrow=none;" edge="1" parent="WIyWlLk6GJQsqaUBKTNV-1" source="XGTmsf3LzEXTziaxVreT-30" target="XGTmsf3LzEXTziaxVreT-5">
          <mxGeometry width="50" height="50" relative="1" as="geometry">
            <mxPoint x="440" y="680" as="sourcePoint" />
            <mxPoint x="440" y="40" as="targetPoint" />
          </mxGeometry>
        </mxCell>
        <mxCell id="XGTmsf3LzEXTziaxVreT-66" value="刷新页面" style="text;html=1;align=center;verticalAlign=middle;resizable=0;points=[];autosize=1;strokeColor=none;" vertex="1" parent="WIyWlLk6GJQsqaUBKTNV-1">
          <mxGeometry x="700" y="640" width="60" height="20" as="geometry" />
        </mxCell>
        <mxCell id="XGTmsf3LzEXTziaxVreT-67" value="Y" style="text;html=1;align=center;verticalAlign=middle;resizable=0;points=[];autosize=1;strokeColor=none;" vertex="1" parent="WIyWlLk6GJQsqaUBKTNV-1">
          <mxGeometry x="730" y="610" width="20" height="20" as="geometry" />
        </mxCell>
      </root>
    </mxGraphModel>
  </diagram>
</mxfile>
